<svg xmlns="http://www.w3.org/2000/svg" viewBox="0 0 400 108.16"><defs><style>.cls-1{fill:#fff;}</style></defs><title>Asset 14svg-logo</title><g id="Layer_2" data-name="Layer 2"><g id="Layer_1-2" data-name="Layer 1"><path class="cls-1" d="M121.14,38.1c-1.48,0-2.85,0-4.11-.05L114,38v.91a6.66,6.66,0,0,1,2.16.34,1.65,1.65,0,0,1,1,1.09,8.85,8.85,0,0,1,.25,2.48V65.33a8.93,8.93,0,0,1-.25,2.46,1.58,1.58,0,0,1-1,1.09,8,8,0,0,1-2.18.36v.91c.79-.06,1.81-.1,3.07-.11s2.63,0,4.11,0c1.28,0,2.53,0,3.78,0s2.27,0,3.09.11v-.91a8,8,0,0,1-2.18-.36,1.58,1.58,0,0,1-1-1.09,8.93,8.93,0,0,1-.25-2.46V42.78a9.43,9.43,0,0,1,.23-2.48,1.57,1.57,0,0,1,1-1.09,6.86,6.86,0,0,1,2.21-.34V38l-3.09.09C123.67,38.08,122.42,38.1,121.14,38.1Z"/><path class="cls-1" d="M169.25,38.1c-.82,0-1.7,0-2.64-.05L164.34,38v.91a6.85,6.85,0,0,1,2.93.77,2.88,2.88,0,0,1,1.21,1.93,20.86,20.86,0,0,1,.27,3.85V59.65L151.15,38l-1.82.09c-.66,0-1.36.05-2.09.05s-1.41,0-2.13-.05L143.29,38v.91a6.66,6.66,0,0,1,2.16.34,1.65,1.65,0,0,1,1,1.09,9.25,9.25,0,0,1,.25,2.48V63.24a18.89,18.89,0,0,1-.25,3.43,2.86,2.86,0,0,1-1,1.8,5,5,0,0,1-2.18.77v.91a16.89,16.89,0,0,1,1.82-.11c.72,0,1.43,0,2.13,0s1.7,0,2.64,0,1.7,0,2.27.11v-.91a7.44,7.44,0,0,1-2.93-.79,2.74,2.74,0,0,1-1.2-1.91,19.86,19.86,0,0,1-.28-3.85V45.24l19.74,25c.42,0,.82,0,1.2,0s.75,0,1.11,0V44.87a18.83,18.83,0,0,1,.25-3.45,3,3,0,0,1,1-1.8,4.42,4.42,0,0,1,2.18-.75V38l-1.79.09C170.7,38.08,170,38.1,169.25,38.1Z"/><path class="cls-1" d="M212.58,38c-1.39.06-3,.1-4.75.11l-4.75,0H199c-1.7,0-3.51,0-5.42-.05L188.25,38v.91a6.66,6.66,0,0,1,2.16.34,1.63,1.63,0,0,1,1,1.09,8.85,8.85,0,0,1,.25,2.48V65.33a8.93,8.93,0,0,1-.25,2.46,1.57,1.57,0,0,1-1,1.09,8.21,8.21,0,0,1-2.19.36v.91l3.37-.09c1.24,0,2.52,0,3.82,0,1.64,0,3.2,0,4.68,0l3.64.09v-1a13.72,13.72,0,0,1-3.09-.32,2,2,0,0,1-1.41-1.13,7,7,0,0,1-.37-2.64V54.6h1.59a4.85,4.85,0,0,1,3,.84,5.35,5.35,0,0,1,1.73,2.21,13,13,0,0,1,.86,3h1.05c-.12-1.72-.2-3-.23-4s0-1.75,0-2.5,0-1.59,0-2.5,0-2.23.16-4h-1a16.78,16.78,0,0,1-.85,2.61,6.45,6.45,0,0,1-1.65,2.39,4.14,4.14,0,0,1-2.92,1h-1.59V42.23a7.15,7.15,0,0,1,.23-2.09,1.4,1.4,0,0,1,.91-.91,6.76,6.76,0,0,1,2-.22h1.5a7.18,7.18,0,0,1,3.62.86,6.81,6.81,0,0,1,2.57,2.89,19.4,19.4,0,0,1,1.63,5.57h1.05c0-.43-.06-.94-.09-1.55s-.05-1.24-.05-1.91,0-1.68.07-2.95S212.46,39.32,212.58,38Z"/><path class="cls-1" d="M234.54,38.1c-1.49,0-2.86,0-4.11-.05L227.36,38v.91a6.66,6.66,0,0,1,2.16.34,1.65,1.65,0,0,1,1,1.09,9.25,9.25,0,0,1,.25,2.48V65.33a9.34,9.34,0,0,1-.25,2.46,1.61,1.61,0,0,1-1,1.09,8.12,8.12,0,0,1-2.18.36v.91c.78-.06,1.81-.1,3.07-.11s2.62,0,4.11,0c1.27,0,2.53,0,3.77,0s2.28,0,3.1.11v-.91a8.21,8.21,0,0,1-2.19-.36,1.57,1.57,0,0,1-1-1.09,8.93,8.93,0,0,1-.25-2.46V42.78a10,10,0,0,1,.22-2.48,1.58,1.58,0,0,1,1-1.09,6.86,6.86,0,0,1,2.21-.34V38l-3.1.09C237.07,38.08,235.81,38.1,234.54,38.1Z"/><path class="cls-1" d="M282.65,38.1c-.82,0-1.7,0-2.64-.05L277.74,38v.91a6.85,6.85,0,0,1,2.93.77,2.83,2.83,0,0,1,1.2,1.93,20.69,20.69,0,0,1,.28,3.85V59.65L264.55,38l-1.82.09c-.67,0-1.36.05-2.09.05s-1.41,0-2.14-.05L256.68,38v.91a6.66,6.66,0,0,1,2.16.34,1.63,1.63,0,0,1,1,1.09,8.85,8.85,0,0,1,.25,2.48V63.24a18,18,0,0,1-.25,3.43,2.81,2.81,0,0,1-1,1.8,5,5,0,0,1-2.19.77v.91A17.23,17.23,0,0,1,258.5,70c.73,0,1.44,0,2.14,0s1.7,0,2.64,0,1.69,0,2.27.11v-.91a7.44,7.44,0,0,1-2.93-.79,2.75,2.75,0,0,1-1.21-1.91,20.86,20.86,0,0,1-.27-3.85V45.24l19.73,25c.43,0,.83,0,1.21,0s.75,0,1.11,0V44.87a18,18,0,0,1,.25-3.45,2.92,2.92,0,0,1,1-1.8,4.38,4.38,0,0,1,2.18-.75V38l-1.79.09C284.09,38.08,283.37,38.1,282.65,38.1Z"/><path class="cls-1" d="M308.84,38.1c-1.49,0-2.86,0-4.12-.05L301.65,38v.91a6.66,6.66,0,0,1,2.16.34,1.63,1.63,0,0,1,1,1.09,8.85,8.85,0,0,1,.25,2.48V65.33a8.93,8.93,0,0,1-.25,2.46,1.56,1.56,0,0,1-1,1.09,8,8,0,0,1-2.18.36v.91c.79-.06,1.81-.1,3.07-.11s2.63,0,4.12,0c1.27,0,2.53,0,3.77,0s2.27,0,3.09.11v-.91a8,8,0,0,1-2.18-.36,1.58,1.58,0,0,1-1-1.09,8.93,8.93,0,0,1-.25-2.46V42.78a9.88,9.88,0,0,1,.23-2.48,1.58,1.58,0,0,1,1-1.09,6.79,6.79,0,0,1,2.2-.34V38l-3.09.09C311.37,38.08,310.11,38.1,308.84,38.1Z"/><path class="cls-1" d="M358.58,38l-4.5.09c-1.67,0-3.33.05-5,.05h-9c-1.66,0-3.32,0-5-.05L330.52,38c.13,1.55.21,3,.25,4.46s.07,2.51.07,3.27,0,1.3,0,1.91a15.19,15.19,0,0,1-.11,1.55h1a26.46,26.46,0,0,1,1.91-6.07,7.32,7.32,0,0,1,2.64-3.14,6.91,6.91,0,0,1,3.64-.93h1V65a7.59,7.59,0,0,1-.37,2.73,2,2,0,0,1-1.41,1.2,13,13,0,0,1-3.09.34v.91l3.59-.09c1.49,0,3.07,0,4.73,0s3.33,0,4.89,0l3.75.09v-.91a12.74,12.74,0,0,1-3-.34,2.1,2.1,0,0,1-1.44-1.2,7.55,7.55,0,0,1-.38-2.73V39h1a6.91,6.91,0,0,1,3.64.93,7.37,7.37,0,0,1,2.66,3.16,23.61,23.61,0,0,1,1.84,6h1c0-.43-.06-.94-.09-1.55s-.05-1.24-.05-1.91,0-1.85.07-3.27S358.46,39.51,358.58,38Z"/><path class="cls-1" d="M398.43,38c-.59,0-1.22,0-1.89,0-.93,0-1.86,0-2.77,0l-2.91-.1v.91a4.82,4.82,0,0,1,2.89.85,2.94,2.94,0,0,1,.91,2.66,14.41,14.41,0,0,1-1.8,5.13l-3.53,7.1L382.4,41.23c-.36-.69-.42-1.2-.18-1.52a2,2,0,0,1,1.28-.66,10.46,10.46,0,0,1,2-.18v-1c-1.27.07-2.68.12-4.23.16s-3,.07-4.32.07c-1,0-2,0-2.84,0s-1.7-.09-2.52-.19v1a2.06,2.06,0,0,1,1.16.5,6.33,6.33,0,0,1,1.47,2.05L383,57.65v7.68a8.93,8.93,0,0,1-.25,2.46,1.58,1.58,0,0,1-1,1.09,8,8,0,0,1-2.18.36v.91c.73-.06,1.73-.1,3-.11s2.62,0,4.05,0c1.27,0,2.55,0,3.84,0s2.34,0,3.16.11v-.91a8,8,0,0,1-2.18-.36,1.58,1.58,0,0,1-1-1.09,8.93,8.93,0,0,1-.25-2.46V54.72l5.37-10.62A19.12,19.12,0,0,1,398,40.44,5.86,5.86,0,0,1,400,38.82v-.91Z"/><path class="cls-1" d="M79.33,28.84,77.17,18,47.59,47.59,0,0,15.87,79.32,18,90.14,47.6,60.56l47.6,47.6ZM23.66,71.53,14.94,27.9,41.11,54.08Zm47.88-34.9,8.72,43.63L54.08,54.08Z"/></g></g></svg>