<svg xmlns="http://www.w3.org/2000/svg" viewBox="0 0 1200 324.47"><defs><style>.cls-1{fill:#1d1d1b;}</style></defs><title>Asset 11svg-logo</title><g id="Layer_2" data-name="Layer 2"><g id="Layer_1-2" data-name="Layer 1"><path class="cls-1" d="M363.43,114.29q-6.69,0-12.35-.14t-9.2-.27v2.73a20.35,20.35,0,0,1,6.48,1,4.93,4.93,0,0,1,3,3.28,26.85,26.85,0,0,1,.75,7.43V196a26.91,26.91,0,0,1-.75,7.36,4.75,4.75,0,0,1-2.94,3.28,24.14,24.14,0,0,1-6.54,1.09v2.73q3.54-.28,9.2-.34t12.35-.07q5.73,0,11.32.07t9.28.34v-2.73a24.23,24.23,0,0,1-6.55-1.09,4.74,4.74,0,0,1-2.93-3.28,26.91,26.91,0,0,1-.75-7.36V128.34a29.18,29.18,0,0,1,.68-7.43,4.72,4.72,0,0,1,2.93-3.28,20.78,20.78,0,0,1,6.62-1v-2.73q-3.69.14-9.28.27C371,114.25,367.25,114.29,363.43,114.29Z"/><path class="cls-1" d="M507.75,114.29c-2.46,0-5.1,0-7.92-.14s-5.09-.18-6.81-.27v2.73c4,.36,6.93,1.14,8.79,2.32a8.47,8.47,0,0,1,3.62,5.79,62.33,62.33,0,0,1,.81,11.53V179l-52.78-65.07-5.46.27c-2,.1-4.09.14-6.27.14s-4.23,0-6.41-.14-4-.18-5.46-.27v2.73a20.25,20.25,0,0,1,6.48,1,4.93,4.93,0,0,1,3,3.28,26.85,26.85,0,0,1,.75,7.43v61.38a55.17,55.17,0,0,1-.75,10.3,8.53,8.53,0,0,1-2.93,5.39,14.91,14.91,0,0,1-6.55,2.32v2.73a50.5,50.5,0,0,1,5.46-.34c2.18-.05,4.31-.07,6.41-.07q3.67,0,7.91.07t6.82.34v-2.73c-4-.46-6.94-1.25-8.8-2.39a8.22,8.22,0,0,1-3.61-5.73,61.15,61.15,0,0,1-.82-11.53V135.71l59.2,75c1.27-.09,2.47-.14,3.61-.14s2.25,0,3.34.14V134.61a54.93,54.93,0,0,1,.75-10.36,8.74,8.74,0,0,1,2.94-5.39,13.19,13.19,0,0,1,6.54-2.25v-2.73c-1.45.09-3.25.18-5.38.27S509.93,114.29,507.75,114.29Z"/><path class="cls-1" d="M637.74,113.88q-6.27.27-14.25.34t-14.26.07H597q-7.65,0-16.24-.14l-16-.27v2.73a20.25,20.25,0,0,1,6.48,1,4.93,4.93,0,0,1,3,3.28,26.85,26.85,0,0,1,.75,7.43V196a26.91,26.91,0,0,1-.75,7.36,4.76,4.76,0,0,1-2.93,3.28,24.3,24.3,0,0,1-6.55,1.09v2.73c3-.1,6.37-.19,10.1-.28s7.55-.13,11.45-.13q7.38,0,14.05.13t10.92.28v-3a42.85,42.85,0,0,1-9.28-.95,5.88,5.88,0,0,1-4.23-3.41,21.5,21.5,0,0,1-1.09-7.91V163.81h4.77a14.55,14.55,0,0,1,8.87,2.52,15.88,15.88,0,0,1,5.18,6.61,38.57,38.57,0,0,1,2.6,8.87h3.13q-.54-7.77-.68-11.87c-.09-2.72-.13-5.23-.13-7.5s0-4.77-.07-7.5.11-6.69.48-11.87h-3.14a48.51,48.51,0,0,1-2.53,7.84,19.65,19.65,0,0,1-5,7.17,12.45,12.45,0,0,1-8.74,3h-4.77V126.7a21.43,21.43,0,0,1,.68-6.27,4.12,4.12,0,0,1,2.73-2.73,20.24,20.24,0,0,1,6-.68h4.51a21.6,21.6,0,0,1,10.84,2.59q4.56,2.6,7.71,8.66T634.06,145h3.13c-.09-1.27-.18-2.82-.27-4.64s-.13-3.73-.13-5.73.06-5,.2-8.86S637.38,118,637.74,113.88Z"/><path class="cls-1" d="M703.62,114.29q-6.69,0-12.34-.14t-9.21-.27v2.73a20.25,20.25,0,0,1,6.48,1,4.93,4.93,0,0,1,3,3.28,26.85,26.85,0,0,1,.75,7.43V196a26.91,26.91,0,0,1-.75,7.36,4.76,4.76,0,0,1-2.93,3.28,24.3,24.3,0,0,1-6.55,1.09v2.73q3.54-.28,9.21-.34t12.34-.07q5.73,0,11.32.07t9.28.34v-2.73a24.23,24.23,0,0,1-6.55-1.09,4.74,4.74,0,0,1-2.93-3.28A26.91,26.91,0,0,1,714,196V128.34a29.18,29.18,0,0,1,.68-7.43,4.72,4.72,0,0,1,2.93-3.28,20.78,20.78,0,0,1,6.62-1v-2.73q-3.69.14-9.28.27C711.21,114.25,707.44,114.29,703.62,114.29Z"/><path class="cls-1" d="M847.94,114.29c-2.46,0-5.09,0-7.91-.14s-5.1-.18-6.82-.27v2.73c4,.36,6.93,1.14,8.8,2.32a8.49,8.49,0,0,1,3.61,5.79,62.17,62.17,0,0,1,.82,11.53V179l-52.79-65.07-5.46.27c-2,.1-4.09.14-6.27.14s-4.23,0-6.41-.14-4-.18-5.46-.27v2.73a20.25,20.25,0,0,1,6.48,1,4.93,4.93,0,0,1,3,3.28,26.85,26.85,0,0,1,.75,7.43v61.38a55.17,55.17,0,0,1-.75,10.3,8.53,8.53,0,0,1-2.93,5.39,14.91,14.91,0,0,1-6.55,2.32v2.73a50.85,50.85,0,0,1,5.46-.34q3.27-.08,6.41-.07,3.68,0,7.91.07t6.82.34v-2.73c-4-.46-6.94-1.25-8.8-2.39a8.22,8.22,0,0,1-3.61-5.73,61.15,61.15,0,0,1-.82-11.53V135.71l59.2,75c1.27-.09,2.47-.14,3.61-.14s2.25,0,3.35.14V134.61a54.1,54.1,0,0,1,.75-10.36,8.68,8.68,0,0,1,2.93-5.39,13.23,13.23,0,0,1,6.55-2.25v-2.73c-1.46.09-3.26.18-5.39.27S850.12,114.29,847.94,114.29Z"/><path class="cls-1" d="M926.51,114.29q-6.69,0-12.35-.14t-9.2-.27v2.73a20.23,20.23,0,0,1,6.47,1,4.94,4.94,0,0,1,3,3.28,26.93,26.93,0,0,1,.74,7.43V196a27,27,0,0,1-.74,7.36,4.75,4.75,0,0,1-2.94,3.28,24.21,24.21,0,0,1-6.54,1.09v2.73q3.54-.28,9.2-.34t12.35-.07q5.73,0,11.32.07t9.27.34v-2.73a24.14,24.14,0,0,1-6.54-1.09,4.75,4.75,0,0,1-2.94-3.28,26.91,26.91,0,0,1-.75-7.36V128.34a29.09,29.09,0,0,1,.69-7.43,4.72,4.72,0,0,1,2.93-3.28,20.71,20.71,0,0,1,6.61-1v-2.73q-3.68.14-9.27.27C934.1,114.25,930.33,114.29,926.51,114.29Z"/><path class="cls-1" d="M1075.74,113.88l-13.51.27q-7.5.15-14.93.14h-27.08q-7.5,0-14.94-.14l-13.71-.27q.55,7,.75,13.37c.14,4.27.21,7.55.21,9.82,0,2,0,3.91-.07,5.73a42.39,42.39,0,0,1-.34,4.64h3.13q2.46-11.59,5.73-18.21c2.19-4.41,4.82-7.55,7.92-9.42a20.73,20.73,0,0,1,10.91-2.79h3v77.89a23.21,23.21,0,0,1-1.09,8.18,6,6,0,0,1-4.23,3.62,39.7,39.7,0,0,1-9.28,1v2.73q4.1-.15,10.78-.28t14.19-.13q7.63,0,14.66.13c4.68.09,8.44.18,11.25.28v-2.73a38.92,38.92,0,0,1-9.13-1,6.21,6.21,0,0,1-4.3-3.62,22.06,22.06,0,0,1-1.16-8.18V117h3.14a20.78,20.78,0,0,1,10.91,2.79q4.64,2.81,8,9.49t5.52,18.14h3.14c-.09-1.28-.18-2.82-.27-4.64s-.14-3.73-.14-5.73c0-2.27.07-5.55.2-9.82S1075.37,118.52,1075.74,113.88Z"/><path class="cls-1" d="M1195.3,114c-1.78.09-3.67.13-5.67.13-2.81,0-5.59,0-8.32-.13l-8.73-.28v2.73c3.73.09,6.62.94,8.67,2.53s3,4.25,2.72,8-2,8.86-5.38,15.41L1168,163.68l-20.78-40q-1.64-3.14-.54-4.57a6.15,6.15,0,0,1,3.82-2,31.7,31.7,0,0,1,6.13-.54v-2.87c-3.81.19-8,.34-12.68.48s-9,.21-13,.21q-4.63,0-8.53-.14t-7.56-.55v2.87a6.09,6.09,0,0,1,3.47,1.5q2,1.5,4.43,6.14L1149.12,173v23a26.91,26.91,0,0,1-.75,7.36,4.76,4.76,0,0,1-2.93,3.28,24.3,24.3,0,0,1-6.55,1.09v2.73c2.18-.19,5.19-.3,9-.34s7.87-.07,12.14-.07c3.82,0,7.67,0,11.53.07s7,.15,9.48.34v-2.73a24.3,24.3,0,0,1-6.55-1.09,4.76,4.76,0,0,1-2.93-3.28,26.91,26.91,0,0,1-.75-7.36V164.15l16.1-31.85a57.93,57.93,0,0,1,6.95-11,17.17,17.17,0,0,1,6.14-4.85v-2.73C1198.64,113.83,1197.07,113.93,1195.3,114Z"/><path class="cls-1" d="M238,86.51l-6.48-32.45-88.73,88.72L0,0,47.6,238l6.48,32.45,88.73-88.72L285.59,324.47ZM71,214.6,44.82,83.7l78.52,78.53ZM214.62,109.88l26.15,130.89-78.52-78.52Z"/></g></g></svg>